<!DOCTYPE svg PUBLIC "-//W3C//DTD SVG 20010904//EN" "http://www.w3.org/TR/2001/REC-SVG-20010904/DTD/svg10.dtd">
<svg version="1.0" xmlns="http://www.w3.org/2000/svg" width="1071px" height="351px" viewBox="0 0 10710 3510" preserveAspectRatio="xMidYMid meet">
<g id="layer101" fill="#632327" stroke="none">
 <path d="M2512 2750 c-21 -19 -22 -30 -22 -155 0 -167 5 -175 105 -175 l65 0 0 -320 0 -320 -65 0 c-100 0 -105 -9 -105 -169 0 -71 3 -137 6 -145 4 -9 95 -83 203 -165 108 -81 292 -221 410 -309 147 -112 222 -162 239 -162 17 0 72 34 161 102 515 388 678 512 689 526 8 11 12 57 12 147 0 125 -1 133 -23 153 -19 18 -35 22 -85 22 l-62 0 0 320 0 320 63 0 c53 0 67 4 85 23 20 21 22 34 22 154 0 130 0 132 -26 152 -27 21 -32 21 -838 21 -804 0 -812 0 -834 -20z m1566 -158 l3 -42 -728 2 -728 3 -3 43 -3 42 728 -2 728 -3 3 -43z m-1206 -492 l3 -320 -42 0 -43 0 0 320 0 320 40 0 39 0 3 -320z m302 304 c4 -9 6 -154 6 -321 l-1 -304 -86 3 -85 3 -2 317 -1 318 81 0 c67 0 83 -3 88 -16z m216 -304 l0 -320 -40 0 -40 0 0 320 0 320 40 0 40 0 0 -320z m300 0 l0 -320 -85 0 -85 0 0 320 0 320 85 0 85 0 0 -320z m214 304 c3 -9 6 -153 6 -320 l0 -304 -45 0 -45 0 0 320 0 320 39 0 c26 0 41 -5 45 -16z m176 -799 l0 -45 -730 0 -730 0 0 45 0 45 730 0 730 0 0 -45z m-132 -176 c-2 -6 -7 -10 -12 -9 -5 1 -12 -2 -15 -7 -3 -5 -133 -105 -288 -222 -189 -143 -286 -210 -295 -205 -7 5 -116 86 -243 182 -126 96 -255 193 -285 216 l-55 41 215 3 c118 1 385 1 593 0 207 -2 377 0 377 5 0 4 3 7 6 7 3 0 4 -5 2 -11z"/>
 <path d="M903 2731 c-66 -42 -63 11 -63 -954 l0 -874 23 -34 c13 -19 38 -39 57 -46 45 -15 611 -17 728 -3 217 28 384 150 454 335 19 49 23 79 23 170 0 100 -2 115 -28 167 -33 68 -99 144 -156 178 -41 25 -51 40 -28 40 34 0 162 74 208 120 142 142 168 397 60 605 -54 104 -136 187 -235 235 -147 73 -144 73 -601 77 -395 4 -411 3 -442 -16z m880 -248 c86 -32 138 -80 182 -165 36 -71 37 -75 31 -157 -9 -144 -71 -233 -195 -283 -53 -22 -72 -23 -355 -26 -297 -3 -299 -3 -322 19 l-24 22 0 289 c0 278 1 289 21 309 20 20 28 20 312 17 270 -3 296 -5 350 -25z m-62 -904 c116 -55 165 -137 157 -268 -6 -98 -34 -152 -106 -198 -83 -54 -138 -63 -395 -63 l-228 0 -24 25 -25 24 0 234 c0 238 3 256 40 271 8 3 130 4 270 3 251 -2 256 -3 311 -28z"/>
 <path d="M4763 2734 c-66 -33 -63 10 -63 -957 l0 -874 23 -34 c31 -47 93 -67 144 -47 43 16 4 -33 558 703 235 314 439 582 453 598 29 31 66 35 100 11 l22 -15 1 -567 c0 -312 4 -591 8 -619 9 -62 38 -98 90 -114 51 -15 109 6 138 50 l23 34 0 879 c0 750 -2 883 -15 907 -26 52 -119 77 -172 48 -13 -7 -239 -300 -503 -652 -265 -352 -488 -646 -497 -652 -25 -19 -70 -16 -93 7 -20 20 -20 33 -20 613 0 544 -1 595 -18 627 -30 62 -112 87 -179 54z"/>
 <path d="M6993 2730 c-66 -40 -63 11 -63 -950 0 -950 -3 -906 57 -945 36 -24 109 -25 145 -1 55 36 58 55 58 395 0 298 1 312 20 331 12 12 33 20 52 20 29 0 70 -37 408 -374 218 -218 388 -380 405 -386 42 -16 87 -5 120 30 35 37 38 102 6 152 -11 18 -158 170 -326 338 -253 253 -305 310 -305 332 0 21 80 137 312 451 171 232 317 439 325 459 16 48 8 88 -27 130 -25 30 -33 33 -83 33 -40 0 -61 -5 -76 -19 -12 -11 -148 -191 -303 -400 -154 -210 -293 -393 -306 -408 -44 -48 -76 -39 -155 40 l-67 68 0 307 c0 342 -3 361 -62 397 -42 25 -94 26 -135 0z"/>
 <path d="M8834 2740 c-11 -4 -33 -22 -47 -40 l-27 -32 0 -888 0 -888 26 -31 c42 -50 72 -54 380 -48 309 5 355 12 479 72 86 41 170 115 224 196 111 166 128 427 39 604 -35 70 -100 145 -164 191 -69 49 -89 84 -70 125 6 14 89 150 184 302 124 196 175 287 179 315 13 97 -83 159 -181 118 -28 -12 -63 -62 -236 -337 -111 -178 -213 -339 -227 -356 l-24 -33 -158 0 c-138 0 -160 2 -174 18 -14 15 -16 60 -19 327 -3 280 -5 313 -21 337 -33 48 -109 70 -163 48z m572 -981 c85 -12 151 -43 207 -97 74 -71 99 -129 101 -227 2 -167 -63 -275 -209 -345 l-70 -34 -185 -4 -185 -4 -25 27 -25 27 -3 286 c-4 317 1 354 46 371 32 12 262 12 348 0z"/>
 </g>

</svg>